<svg width="87" height="120" viewBox="0 0 87 120" fill="none" xmlns="http://www.w3.org/2000/svg">
<path d="M70.2598 74.1435C76.5299 68.5701 80.9438 61.211 82.9085 53.0553C84.8731 44.8995 84.2944 36.3377 81.25 28.5206C78.2056 20.7034 72.8414 14.0053 65.8783 9.32649C58.9152 4.64763 50.6868 2.21215 42.2988 2.34734C33.9108 2.48252 25.7652 5.18188 18.9565 10.0827C12.1477 14.9835 7.0022 21.8509 4.21128 29.7621C1.42036 37.6734 1.11779 46.2493 3.34424 54.3375C5.57069 62.4258 10.2195 69.6387 16.6659 75.0072" stroke="white" stroke-width="2"/>
<path d="M33.2065 104.41L16.7781 70.5267V41.0012L30.6395 25.0862H54.2554L69.1437 41.0012V70.5267L48.0947 104.41H33.2065Z" stroke="white" stroke-width="3"/>
<path d="M72.5934 83.0333L70.2107 69.2112L48.2176 104.4H32.8854L15.668 69.2111L12.7625 83.0333L31.172 116.401L50.3485 117.935L72.5934 83.0333Z" fill="black" stroke="white" stroke-width="3"/>
<path d="M56.5313 86.8645L43.6938 79.9761" stroke="white"/>
<path d="M27.6387 86.8644L40.023 79.191" stroke="white"/>
</svg>
