<svg width="330" height="322" viewBox="0 0 330 322" fill="none" xmlns="http://www.w3.org/2000/svg">
<path d="M135.934 265.528L133.987 269.054L128.931 266.261L112.141 296.665L117.197 299.458L115.25 302.984L102.543 295.966L104.814 262.927L78.6587 282.777L65.7519 275.649L67.6991 272.123L72.7554 274.915L89.5455 244.511L84.4892 241.719L86.4364 238.193L101.539 246.533L99.5914 250.059L94.7348 247.377L78.459 276.85L109.721 253.569L111.451 254.524L108.597 293.493L124.873 264.02L120.016 261.338L121.963 257.812L135.934 265.528Z" fill="white"/>
<path d="M92.5841 237.378L89.5507 240.028L85.7504 235.679L69.3246 250.03L73.0749 254.322L70.0416 256.973L62.641 248.502L82.1001 231.501L78.5498 227.437L81.5831 224.787L92.5841 237.378ZM60.0192 255.435C60.7526 256.275 61.1189 257.233 61.1181 258.31C61.0791 259.421 60.6399 260.343 59.8005 261.076C58.9611 261.809 58.0076 262.104 56.9401 261.96C55.8344 261.85 54.9148 261.375 54.1814 260.536C53.4147 259.658 53.0675 258.683 53.1398 257.611C53.1406 256.534 53.5607 255.628 54.4001 254.895C55.2395 254.161 56.212 253.85 57.3177 253.96C58.352 254.066 59.2524 254.558 60.0192 255.435Z" fill="white"/>
<path d="M73.0001 207.93C74.4226 210.731 75.0861 213.547 74.9907 216.38C74.8723 219.168 74.0727 221.734 72.5919 224.077C71.0882 226.375 68.9586 228.224 66.2029 229.623C63.4473 231.023 60.7322 231.663 58.0577 231.544C55.3602 231.38 52.8965 230.557 50.6666 229.076C48.4137 227.549 46.5989 225.43 45.2223 222.72C43.8916 220.1 43.3775 217.633 43.6802 215.32C43.9829 213.007 44.8778 211.188 46.365 209.865L46.8468 210.814L41.3581 213.601L39.2244 209.4L48.7787 204.547L50.7059 208.342C48.97 209.735 47.927 211.43 47.577 213.426C47.1589 215.4 47.489 217.449 48.5674 219.572C49.554 221.514 50.855 223.013 52.4704 224.068C54.0407 225.146 55.7892 225.735 57.7158 225.836C59.6196 225.892 61.5201 225.438 63.4174 224.475C65.4502 223.442 67.0507 222.118 68.2188 220.502C69.3188 218.863 69.9534 217.092 70.1227 215.187C70.2239 213.261 69.7927 211.349 68.829 209.452C67.613 207.057 66.1862 205.367 64.5485 204.38C62.8427 203.371 60.9798 202.613 58.96 202.104L60.9423 198.455C63.3243 198.893 65.5851 199.876 67.7247 201.403C69.8191 202.953 71.5776 205.129 73.0001 207.93Z" fill="white"/>
<path d="M66.2261 195.926L62.2442 196.533L61.4073 191.049L26.2463 196.414L27.0718 201.824L23.165 202.42L21.4912 191.451L39.3722 188.722L40.0574 190.693C38.126 188.784 36.495 186.829 35.1647 184.828C33.7842 182.835 32.9182 180.687 32.5666 178.383C32.1539 175.678 32.6538 173.244 34.0663 171.081C35.4287 168.925 37.7127 167.603 40.9183 167.114L57.3718 164.603L56.5464 159.194L60.5283 158.586L62.9473 174.439L58.9654 175.046L58.2202 170.163L42.8185 172.513C40.7649 172.826 39.2386 173.572 38.2394 174.749C37.2326 175.877 36.863 177.317 37.1305 179.07C37.4209 180.973 38.1987 182.879 39.4637 184.787C40.6786 186.703 42.096 188.435 43.7158 189.981L40.7245 188.516L60.5589 185.489L59.8252 180.681L63.8071 180.073L66.2261 195.926Z" fill="white"/>
<path d="M64.6011 149.795C64.0984 152.844 62.8447 155.154 60.84 156.723C58.8354 158.293 56.6083 158.875 54.1586 158.471C51.909 158.101 50.1958 157.279 49.0191 156.007C47.8507 154.684 47.1148 153.074 46.8116 151.175C46.5084 149.277 46.534 147.252 46.8884 145.103C47.1686 143.403 47.6029 141.703 48.1913 140.003C48.738 138.244 49.3764 136.552 50.1065 134.927L50.1106 137.238L46.1362 136.583C43.7866 136.196 41.9589 136.536 40.653 137.605C39.3472 138.673 38.517 140.282 38.1627 142.432C37.9319 143.832 37.9099 145.523 38.0966 147.505C38.2416 149.429 38.6072 151.26 39.1933 153L35.3219 154.057C34.5105 152.126 34.0362 150.019 33.8989 147.737C33.7116 145.447 33.7622 143.427 34.0507 141.677C34.4792 139.077 35.2709 136.923 36.4257 135.213C37.5805 133.504 39.0361 132.306 40.7924 131.62C42.507 130.875 44.4141 130.676 46.5138 131.022L62.3362 133.631L63.1027 128.982L67.077 129.637L65.507 139.16L61.2335 138.918L61.5797 136.818C62.958 139.048 63.9196 141.158 64.4645 143.148C64.9594 145.129 65.005 147.345 64.6011 149.795ZM60.9128 148.339C61.2177 146.489 61.1227 144.574 60.6278 142.592C60.1328 140.611 59.2253 138.484 57.9053 136.212L60.234 138.907L51.5354 137.473L53.1695 135.971C52.5553 137.205 51.9872 138.626 51.4653 140.234C50.9433 141.843 50.5381 143.522 50.2497 145.272C49.9612 147.022 50.0974 148.687 50.6583 150.269C51.1692 151.842 52.5244 152.81 54.7241 153.173C56.2238 153.42 57.556 153.126 58.7207 152.291C59.8854 151.456 60.6161 150.139 60.9128 148.339Z" fill="white"/>
<path d="M75.8698 116.308C74.4656 119.118 72.5969 121.384 70.2635 123.107C67.9527 124.784 65.3925 125.77 62.5829 126.066C59.7959 126.316 56.9974 125.739 54.1873 124.334C51.2866 122.885 49.1109 121.005 47.6601 118.694C46.164 116.361 45.3817 113.846 45.313 111.149C45.199 108.43 45.7988 105.756 47.1123 103.128C48.4711 100.408 50.204 98.3571 52.3109 96.9744C54.4405 95.5463 56.8081 94.832 59.4139 94.8313C62.0197 94.8306 64.7276 95.5323 67.5376 96.9364L68.8293 97.5819L57.4152 120.425L54.3219 118.794L63.2222 100.982C61.4545 100.099 59.7777 99.7142 58.1916 99.8279C56.5828 99.8736 55.1555 100.35 53.9095 101.256C52.6181 102.141 51.5761 103.376 50.7835 104.962C49.9456 106.639 49.5948 108.361 49.7312 110.128C49.8223 111.873 50.4118 113.527 51.4999 115.09C52.5652 116.586 54.1403 117.854 56.2252 118.896C58.4461 120.005 60.5761 120.56 62.6154 120.56C64.6094 120.536 66.422 120.026 68.0532 119.029C69.6617 117.963 70.9415 116.479 71.8927 114.575C72.9118 112.536 73.4437 110.451 73.4885 108.321C73.5333 106.191 73.2609 104.186 72.6712 102.305L76.6138 102.066C77.4074 103.992 77.8158 106.179 77.8391 108.626C77.8624 111.073 77.2059 113.633 75.8698 116.308Z" fill="white"/>
<path d="M83.058 103.232L79.9976 100.613L83.6049 96.3977L56.5813 73.2718L53.0729 77.3715L50.0703 74.802L57.2353 66.4293L87.2615 92.1248L90.4241 88.4292L93.4844 91.0482L83.058 103.232Z" fill="white"/>
<path d="M131.884 68.7399C130.009 69.5083 128.135 69.9474 126.264 70.0572C124.42 70.1008 122.677 69.8567 121.036 69.3248C119.375 68.7459 117.881 67.9069 116.555 66.8078L117.469 66.4332L120.063 72.7625L115.491 74.6355L110.016 61.2737L114.236 59.5448C115.211 61.3901 116.498 62.8612 118.098 63.9581C119.697 65.0549 121.523 65.703 123.576 65.9022C125.609 66.0545 127.751 65.6696 130.002 64.7474C132.44 63.7485 134.108 62.4078 135.006 60.7255C135.886 58.9963 135.884 57.0534 135 54.8968C134.289 53.1621 133.437 51.9508 132.443 51.2628C131.43 50.528 130.115 50.1909 128.497 50.2515C126.86 50.2653 124.793 50.5649 122.295 51.1503L120.492 51.5606C116.425 52.4603 112.869 52.4666 109.822 51.5795C106.756 50.6455 104.542 48.5141 103.178 45.1854C102.217 42.8412 101.926 40.6608 102.304 38.6441C102.682 36.6275 103.636 34.8129 105.166 33.2006C106.695 31.5883 108.703 30.273 111.187 29.2549C113.954 28.1214 116.641 27.7319 119.251 28.0864C121.86 28.4409 123.972 29.5193 125.586 31.3217L124.109 31.9269L121.631 25.8789L126.132 24.0347L130.714 35.2164L126.565 36.9165C125.916 35.8682 125.037 34.8594 123.928 33.8901C122.819 32.9209 121.389 32.3025 119.636 32.0349C117.884 31.7673 115.719 32.1619 113.14 33.2184C110.702 34.2174 109.067 35.5719 108.235 37.2819C107.383 38.945 107.332 40.6908 108.081 42.5192C108.907 44.5352 110.268 45.7846 112.163 46.2674C114.058 46.7502 116.494 46.6827 119.472 46.065L121.205 45.6835C124.51 44.9313 127.353 44.5876 129.734 44.6523C132.115 44.717 134.115 45.3212 135.734 46.465C137.399 47.5895 138.75 49.4176 139.788 51.9493C140.633 54.0122 140.929 56.1361 140.674 58.3211C140.4 60.4592 139.547 62.4516 138.113 64.2984C136.68 66.1451 134.603 67.6256 131.884 68.7399Z" fill="white"/>
<path d="M143.229 63.7211L143.005 59.6994L148.544 59.3913L146.569 23.8782L141.106 24.182L140.886 20.2361L151.965 19.62L152.97 37.6801L150.942 38.1734C153.027 36.4336 155.129 34.9973 157.248 33.8646C159.365 32.6813 161.586 32.0249 163.913 31.8955C166.645 31.7436 169.02 32.4741 171.038 34.0872C173.053 35.6498 174.151 38.0498 174.331 41.2875L175.255 57.9058L180.719 57.602L180.942 61.6238L164.931 62.5142L164.707 58.4924L169.64 58.2181L168.775 42.6621C168.659 40.588 168.063 38.9973 166.987 37.8901C165.961 36.78 164.563 36.2742 162.792 36.3726C160.87 36.4795 158.898 37.0713 156.878 38.1478C154.854 39.1737 152.995 40.4189 151.3 41.8832L153.046 39.046L154.16 59.079L159.016 58.8089L159.24 62.8307L143.229 63.7211Z" fill="white"/>
<path d="M189.304 66.5195C186.316 65.7272 184.137 64.2582 182.767 62.1125C181.397 59.9668 181.03 57.6941 181.666 55.2944C182.251 53.0906 183.232 51.4639 184.612 50.4144C186.04 49.3779 187.713 48.7996 189.632 48.6795C191.551 48.5594 193.563 48.7787 195.669 49.3372C197.334 49.7788 198.985 50.3739 200.621 51.1223C202.319 51.8348 203.942 52.6323 205.49 53.5146L203.189 53.2974L204.222 49.4041C204.832 47.1023 204.668 45.2504 203.73 43.8482C202.791 42.4461 201.269 41.4657 199.163 40.9072C197.792 40.5435 196.111 40.3597 194.12 40.3559C192.191 40.316 190.333 40.5046 188.545 40.9215L187.864 36.9667C189.864 36.3439 192.006 36.0734 194.291 36.1552C196.588 36.188 198.594 36.4318 200.308 36.8864C202.855 37.5618 204.924 38.5561 206.515 39.8692C208.106 41.1824 209.159 42.7459 209.674 44.5599C210.251 46.3378 210.266 48.2553 209.721 50.3121L205.61 65.8122L210.164 67.0202L209.132 70.9136L199.802 68.4392L200.453 64.2085L202.509 64.754C200.158 65.9126 197.966 66.6678 195.933 67.0197C193.913 67.3227 191.703 67.156 189.304 66.5195ZM191.105 62.9874C192.917 63.468 194.833 63.5568 196.853 63.2538C198.873 62.9508 201.077 62.2511 203.464 61.1545L200.559 63.2145L202.819 54.6932L204.158 56.4636C202.989 55.7341 201.628 55.0326 200.077 54.3591C198.526 53.6856 196.893 53.1215 195.179 52.6669C193.465 52.2123 191.794 52.1884 190.166 52.5953C188.551 52.9532 187.458 54.2096 186.886 56.3644C186.496 57.8336 186.661 59.1878 187.381 60.4271C188.101 61.6663 189.342 62.5198 191.105 62.9874Z" fill="white"/>
<path d="M207.519 70.8269L209.706 67.4446L214.556 70.5813L226.401 52.2659L221.551 49.1292L223.739 45.7469L233.247 51.8965L231.019 55.3426L229.108 54.3784C231.693 54.3003 234.14 54.4348 236.45 54.7821C238.759 55.1294 240.85 55.9083 242.722 57.119C245.02 58.6048 246.488 60.58 247.126 63.0446C247.835 65.4941 247.309 68.0803 245.548 70.8031L236.509 84.779L241.168 87.7919L238.98 91.1742L225.515 82.4657L227.702 79.0834L231.851 81.7662L240.311 68.6837C241.439 66.9394 241.894 65.3028 241.676 63.774C241.458 62.2451 240.605 60.9992 239.116 60.0362C237.584 59.0457 235.811 58.3817 233.797 58.0444C231.782 57.707 229.497 57.5562 226.939 57.5918L230.111 56.7466L219.215 73.5942L223.746 76.5246L221.558 79.9069L207.519 70.8269Z" fill="white"/>
<path d="M244.045 101.627C242.603 99.7961 241.786 98.0213 241.593 96.3027C241.4 94.5841 241.682 92.9759 242.437 91.4782C243.224 90.0203 244.334 88.7271 245.767 87.5986L258.783 77.3479L255.679 73.4072L258.844 70.9151L265.427 79.2741L249.724 91.6408C248.251 92.8006 247.359 94.0836 247.047 95.4898C246.736 96.8959 247.176 98.3553 248.367 99.8679C249.746 101.619 251.434 102.902 253.43 103.717C255.425 104.531 257.677 105.015 260.184 105.169L256.774 105.63L271.761 93.8271L268.422 89.5879L271.587 87.0958L278.358 95.6936L258.057 111.681L261.49 116.04L258.325 118.532L251.554 109.934L255.294 106.698L256.815 108.016C254.12 107.623 251.66 106.916 249.437 105.894C247.284 104.88 245.487 103.458 244.045 101.627Z" fill="white"/>
<path d="M265.947 137.547L269.973 137.396L270.189 143.168L304.897 141.867L304.68 136.095L308.705 135.944L309.249 150.45L279.774 165.549L310.271 177.715L310.823 192.449L306.798 192.6L306.582 186.828L271.874 188.129L272.09 193.901L268.065 194.051L267.419 176.811L271.444 176.661L271.652 182.205L305.296 180.944L269.226 166.172L269.152 164.198L304.007 146.54L270.363 147.801L270.57 153.345L266.545 153.496L265.947 137.547Z" fill="white"/>
<path d="M259.222 201.601C260.081 199.434 261.205 197.836 262.594 196.806C263.983 195.776 265.515 195.211 267.19 195.112C268.845 195.06 270.521 195.37 272.217 196.042L287.619 202.146L289.467 197.483L293.212 198.967L289.291 208.859L270.71 201.494C268.967 200.803 267.409 200.677 266.037 201.114C264.665 201.551 263.624 202.664 262.915 204.454C262.093 206.527 261.832 208.63 262.13 210.765C262.429 212.9 263.141 215.09 264.268 217.335L262.156 214.618L279.89 221.647L281.878 216.63L285.623 218.114L281.591 228.288L257.569 218.767L255.524 223.925L251.78 222.441L255.812 212.267L260.489 213.875L260.114 215.852C259.099 213.324 258.475 210.842 258.242 208.406C258.037 206.036 258.363 203.768 259.222 201.601Z" fill="white"/>
<path d="M240.584 232.246C241.573 231.026 242.687 229.973 243.927 229.086C245.135 228.239 246.35 227.626 247.571 227.246C248.792 226.866 249.952 226.762 251.05 226.935L249.801 227.39L247.203 225.285L249.979 221.86L258.009 228.368L255.521 231.438L251.395 228.682L254.841 230.105C253.033 229.357 251.13 229.413 249.13 230.27C247.099 231.168 245.413 232.443 244.073 234.096C242.861 235.592 242.152 237.071 241.945 238.534C241.706 240.036 242.118 241.217 243.18 242.079C244.44 243.099 245.657 243.368 246.831 242.885C248.013 242.473 249.55 241.502 251.443 239.971L254.783 237.297C257.089 235.579 259.205 234.457 261.131 233.931C263.096 233.437 265.162 234.067 267.327 235.822C269.413 237.512 270.353 239.611 270.147 242.118C269.949 244.697 268.861 247.206 266.883 249.647C266.118 250.591 265.182 251.464 264.077 252.264C262.98 253.135 261.824 253.797 260.611 254.248C259.397 254.699 258.273 254.799 257.238 254.547L258.251 253.901L260.908 256.054L258.085 259.538L250.114 253.078L252.602 250.008L258.833 253.786L254.123 251.631C254.959 252.048 255.936 252.09 257.054 251.757C258.179 251.495 259.298 250.999 260.411 250.27C261.491 249.581 262.414 248.764 263.18 247.819C264.201 246.559 264.87 245.211 265.187 243.772C265.473 242.374 265.045 241.212 263.904 240.287C263.038 239.585 262.098 239.377 261.083 239.663C260.036 239.989 258.678 240.78 257.009 242.035L253.919 244.52C252.352 245.729 250.835 246.716 249.366 247.483C247.905 248.32 246.414 248.71 244.895 248.653C243.416 248.628 241.83 247.93 240.137 246.558C238.602 245.314 237.674 243.844 237.352 242.149C237.038 240.524 237.203 238.832 237.847 237.072C238.459 235.35 239.371 233.742 240.584 232.246Z" fill="white"/>
<path d="M232.484 241.582L234.93 244.782L230.341 248.29L243.589 265.618L248.117 262.156L250.563 265.356L241.627 272.188L225.934 251.659L221.647 254.936L219.201 251.736L232.484 241.582ZM248.374 275.257C249.26 274.58 250.24 274.277 251.315 274.348C252.421 274.46 253.312 274.958 253.989 275.844C254.666 276.729 254.898 277.7 254.684 278.756C254.502 279.852 253.968 280.739 253.083 281.416C252.157 282.123 251.161 282.406 250.096 282.264C249.021 282.193 248.145 281.714 247.468 280.829C246.791 279.943 246.544 278.952 246.726 277.856C246.899 276.831 247.449 275.965 248.374 275.257Z" fill="white"/>
<path d="M201.819 259.2C204.706 257.963 207.561 257.485 210.381 257.766C213.156 258.066 215.663 259.031 217.905 260.662C220.1 262.313 221.805 264.559 223.022 267.4C224.238 270.241 224.7 272.992 224.406 275.653C224.066 278.334 223.084 280.739 221.46 282.867C219.789 285.016 217.557 286.688 214.762 287.885C212.061 289.041 209.566 289.393 207.277 288.94C204.989 288.487 203.233 287.475 202.009 285.904L202.987 285.486L205.41 291.145L201.079 292.999L196.861 283.148L200.773 281.473C202.05 283.297 203.673 284.448 205.642 284.928C207.585 285.474 209.65 285.278 211.839 284.341C213.842 283.483 215.423 282.283 216.581 280.74C217.759 279.244 218.461 277.537 218.688 275.621C218.868 273.725 218.54 271.799 217.702 269.843C216.805 267.747 215.588 266.064 214.051 264.792C212.488 263.588 210.762 262.839 208.873 262.545C206.957 262.318 205.021 262.624 203.065 263.461C200.596 264.518 198.816 265.832 197.724 267.401C196.606 269.038 195.727 270.847 195.088 272.829L191.576 270.613C192.169 268.264 193.297 266.073 194.961 264.037C196.645 262.049 198.931 260.436 201.819 259.2Z" fill="white"/>
</svg>
